<svg xmlns="http://www.w3.org/2000/svg"  viewBox="0 0 50 50" width="500px" height="500px"><path fill="#fd772f" d="M45.141,36.505c-1.208-0.514-2.544-0.796-3.828-1.05c-0.131-0.026-0.265-0.041-0.397-0.065 c-0.071-0.661-0.146-1.322-0.233-1.982c0.625-0.301,1.128-0.823,1.398-1.484c1.086-0.02,2.297-0.303,2.856-1.314 c0.344-0.622,0.357-1.405,0.021-2c0.961-0.454,1.728-1.296,1.663-2.443c-0.046-0.818-0.622-1.508-1.354-1.73 c0.512-0.99,0.592-2.211-0.146-3.125c-0.627-0.777-1.683-1.088-2.594-0.814c-0.035-0.429-0.135-0.848-0.403-1.199 c-0.423-0.553-1.108-0.732-1.778-0.662c-0.985,0.104-2.067,0.642-2.573,1.508c-1.305-0.202-2.65,0.337-3.335,1.579 c-0.373,0.677-0.558,1.586-0.13,2.284c0.043,0.071,0.106,0.115,0.158,0.174c-0.886,0.491-1.63,1.203-1.201,2.262 c0.279,0.69,0.877,1.116,1.547,1.257c-0.515,0.833-0.659,1.853-0.076,2.759c0.352,0.547,0.922,0.956,1.568,1.058 c0.527,0.083,1.016-0.066,1.476-0.291c0.009,0.971,0.279,1.934,1.097,2.367c0.029,0.187,0.065,0.374,0.09,0.552 c0.044,0.316,0.088,0.632,0.129,0.948c0,0.001,0,0.003,0,0.004c-0.694-0.089-1.39-0.159-2.087-0.204 c-0.763-0.05-1.526-0.067-2.289-0.061c-0.979-2.125-1.986-4.238-3.026-6.334c-1.001-2.018-2.03-4.023-3.086-6.012 c-0.815-1.536-1.595-3.423-3.27-4.199c-0.217-0.101-0.425-0.079-0.606,0.078c-1.063,0.923-1.851,2.059-2.516,3.273 c-0.685-1.345-1.371-2.69-2.073-4.027c-0.852-1.621-1.635-3.361-2.873-4.733c-0.493-0.546-1.054-1.023-1.64-1.466 c-0.646-0.488-1.221-1.08-2.066-0.79c-1.395,0.479-2.037,2.244-2.654,3.437C9.17,17.42,7.577,20.859,6.127,24.358 c-1.642,3.964-3.087,8.008-4.34,12.112c-0.042,0.138-0.021,0.256,0.031,0.353c-0.029,1.256,0.013,2.512,0.148,3.762 c0.064,0.594,0.145,1.187,0.243,1.776c0.081,0.482,0.153,0.985,0.564,1.302c0.403,0.311,0.97,0.292,1.453,0.329 c0.698,0.055,1.396,0.105,2.094,0.151c1.355,0.089,2.712,0.162,4.068,0.223c5.389,0.239,10.785,0.272,16.179,0.279 c2.719,0.004,5.438,0.001,8.157,0.015c1.359,0.007,2.718,0.019,4.077,0.037c1.214,0.016,2.432,0.028,3.634-0.171 c1.974-0.327,4.044-1.41,4.743-3.406C47.849,39.207,46.987,37.291,45.141,36.505z"/><path fill="#231f20" d="M42.212,41.211c-3.594-2.132-7.434-3.843-11.419-5.097c1.192-0.391,2.423-0.648,3.676-0.735	c0.269-0.019,0.5-0.216,0.5-0.5c0-0.256-0.229-0.519-0.5-0.5c-1.372,0.095-2.724,0.366-4.027,0.801	c-2.155-4.62-4.581-9.108-7.271-13.439c-0.339-0.546-1.204-0.044-0.863,0.505c2.694,4.338,5.124,8.833,7.282,13.461	c-0.004,0.015-0.013,0.028-0.016,0.043c-0.837-0.242-1.677-0.471-2.525-0.671c-5.274-1.249-10.862-1.82-16.268-1.274	c-2.994,0.303-5.931,1.022-8.615,2.409c-0.572,0.296-0.067,1.159,0.505,0.863c4.733-2.447,10.273-2.69,15.49-2.341	c5.263,0.353,10.468,1.51,15.396,3.389c2.826,1.077,5.55,2.406,8.15,3.948C42.262,42.403,42.766,41.539,42.212,41.211z"/><path fill="#231f20" d="M43.087,28.668c0.356,0.196,0.744,0.343,1.144,0.419c0.134,0.025,0.264,0.02,0.385-0.05 c0.104-0.061,0.203-0.18,0.23-0.299c0.029-0.128,0.023-0.272-0.05-0.385c-0.067-0.104-0.172-0.206-0.299-0.23 c-0.237-0.045-0.468-0.114-0.691-0.207c0.04,0.017,0.08,0.034,0.119,0.05c-0.114-0.048-0.225-0.102-0.333-0.162 c-0.115-0.064-0.257-0.086-0.385-0.05c-0.116,0.032-0.242,0.122-0.299,0.23c-0.061,0.116-0.092,0.257-0.05,0.385 C42.897,28.491,42.972,28.604,43.087,28.668L43.087,28.668z"/><path fill="#231f20" d="M37.697,21.044c0.28,0.448,0.668,0.827,1.127,1.088c0.114,0.065,0.258,0.085,0.385,0.05 c0.116-0.032,0.242-0.122,0.299-0.23c0.061-0.116,0.092-0.257,0.05-0.385c-0.04-0.123-0.115-0.234-0.23-0.299 c-0.112-0.063-0.219-0.135-0.321-0.213c0.034,0.026,0.067,0.052,0.101,0.078c-0.179-0.139-0.339-0.3-0.478-0.48 c0.026,0.034,0.052,0.067,0.078,0.101c-0.053-0.07-0.103-0.141-0.149-0.216c-0.068-0.109-0.174-0.195-0.299-0.23 c-0.12-0.033-0.279-0.018-0.385,0.05c-0.107,0.069-0.201,0.171-0.23,0.299C37.617,20.788,37.625,20.929,37.697,21.044 L37.697,21.044z"/><path fill="#fff" d="M13,14.327c-0.928,2.041-1.857,4.083-2.785,6.124c-0.172,0.377-0.265,0.741-0.151,1.156 c0.096,0.348,0.365,0.725,0.689,0.896c0.658,0.348,1.705,0.224,2.052-0.538c0.928-2.041,1.857-4.083,2.785-6.124 c0.172-0.377,0.265-0.741,0.151-1.156c-0.096-0.348-0.365-0.725-0.689-0.896C14.394,13.441,13.347,13.564,13,14.327L13,14.327z"/><path fill="#429ad4" d="M40.697,4.903c-1.299-1.337-3.334-1.769-5.068-1.172c-0.915-1.874-2.968-3.205-5.082-3.007	c-2.007,0.188-3.665,1.553-4.385,3.353c-1.072-0.454-2.359-0.415-3.408,0.101c-1.621,0.798-2.271,2.726-1.688,4.397	c0.475,1.363,1.658,2.534,3.158,2.572c1.124,0.029,2.248,0.058,3.373,0.087c3.696,0.095,7.391,0.19,11.087,0.286	c0.817,0.021,1.755,0.238,2.313-0.494C42.386,9.205,42.178,6.595,40.697,4.903z M30.961,9.321c-0.891-0.023-1.781-0.046-2.672-0.069	c-0.861-0.022-1.722-0.044-2.583-0.067c-0.394-0.01-0.788-0.02-1.182-0.03c-0.137-0.004-0.275-0.005-0.412-0.011	c-0.037-0.002-0.078,0.003-0.114-0.003c0,0,0.001,0.001,0,0.001c-0.018-0.015-0.027-0.023-0.064-0.051	c-0.477-0.365-0.838-0.648-1.009-1.264c-0.13-0.468-0.115-1.02,0.185-1.425c0.717-0.967,2.256-0.81,2.959,0.053	c0.589,0.725,1.663,0.076,1.707-0.707c0.086-1.523,1.405-2.931,2.945-3.038c1.618-0.112,3.052,1.121,3.382,2.661	c0.13,0.606,0.952,0.948,1.469,0.598c1.164-0.787,2.721-0.669,3.71,0.349c0.746,0.852,0.876,2.234,0.31,3.226	C36.715,9.469,33.838,9.395,30.961,9.321z"/><path fill="#df4bb1" d="M31.472,13.972c-0.45,0.86-0.901,1.72-1.351,2.579c-0.124,0.237-0.173,0.508-0.101,0.771 c0.064,0.232,0.243,0.483,0.46,0.598c0.461,0.243,1.109,0.136,1.368-0.359c0.45-0.86,0.901-1.72,1.351-2.579 c0.124-0.237,0.173-0.508,0.101-0.771c-0.064-0.232-0.243-0.483-0.46-0.598C32.38,13.37,31.731,13.477,31.472,13.972 L31.472,13.972z"/><path fill="#df4bb1" d="M36.621,13.674c-0.407,0.802-0.815,1.603-1.222,2.405c-0.122,0.24-0.174,0.505-0.101,0.771 c0.064,0.232,0.243,0.483,0.46,0.598c0.232,0.123,0.513,0.184,0.771,0.101c0.24-0.078,0.48-0.228,0.598-0.46 c0.407-0.802,0.815-1.603,1.222-2.405c0.122-0.24,0.174-0.505,0.101-0.771c-0.064-0.232-0.243-0.483-0.46-0.598 c-0.232-0.123-0.513-0.184-0.771-0.101C36.979,13.291,36.738,13.442,36.621,13.674L36.621,13.674z"/></svg>