<svg xmlns="http://www.w3.org/2000/svg"  viewBox="0 0 50 50" width="500px" height="500px"><path fill="#df4bb1" d="M45.141,36.505c-0.911-0.388-1.895-0.643-2.874-0.854c-0.302-0.053-0.603-0.107-0.905-0.158	c0.892-2.34,2.479-4.36,4.043-6.298c0.339-0.42,0.41-1.004,0-1.414c-0.351-0.351-1.073-0.422-1.414,0	c-0.956,1.184-1.917,2.392-2.758,3.668c-0.184-1.129-0.524-2.234-1.006-3.282c-0.062-0.135-0.169-0.236-0.293-0.317	c-0.362-0.359-0.723-0.72-1.071-1.093c-0.166-0.178-0.328-0.359-0.488-0.544c0.936-0.893,1.872-1.786,2.807-2.679	c0.379-0.362,0.392-1.055,0-1.414c-0.407-0.374-1.01-0.386-1.414,0c-0.85,0.811-1.7,1.622-2.549,2.433	c-0.03-0.055-0.065-0.107-0.093-0.162c-0.058-0.114-0.111-0.231-0.163-0.347c-0.004-0.01-0.003-0.006-0.01-0.025	c-0.024-0.066-0.049-0.131-0.073-0.197c-0.089-0.253-0.158-0.511-0.213-0.773c-0.107-0.513-0.738-0.858-1.23-0.698	c-0.542,0.175-0.814,0.681-0.698,1.23c0.487,2.323,2.191,4.109,3.819,5.724c0.067,0.148,0.091,0.208,0.171,0.423	c0.088,0.234,0.167,0.471,0.238,0.71c0.138,0.462,0.245,0.933,0.322,1.408c0.009,0.051,0.016,0.103,0.024,0.154	c0.002,0.018,0.003,0.024,0.007,0.057c0.012,0.106,0.023,0.213,0.033,0.32c0.022,0.249,0.036,0.498,0.041,0.748	c0.01,0.5-0.015,0.999-0.071,1.496c-0.015,0.132,0.011,0.263,0.064,0.384c-0.016,0.044-0.029,0.09-0.042,0.135	c-0.086-0.016-0.173-0.029-0.26-0.045c-0.69-0.088-1.382-0.158-2.075-0.203c-0.763-0.05-1.526-0.067-2.289-0.061	c-0.979-2.125-1.986-4.238-3.026-6.334c-1.001-2.018-2.03-4.023-3.086-6.012c-0.815-1.536-1.595-3.423-3.27-4.199	c-0.217-0.101-0.425-0.079-0.606,0.078c-1.063,0.923-1.851,2.059-2.516,3.273c-0.685-1.345-1.371-2.69-2.073-4.027	c-0.852-1.621-1.635-3.361-2.873-4.733c-0.493-0.546-1.054-1.023-1.64-1.466c-0.646-0.488-1.221-1.08-2.066-0.79	c-1.395,0.479-2.037,2.244-2.654,3.437C9.17,17.42,7.577,20.859,6.127,24.358c-1.642,3.964-3.087,8.008-4.34,12.112	c-0.042,0.138-0.021,0.256,0.031,0.353c-0.029,1.256,0.013,2.512,0.148,3.762c0.064,0.594,0.145,1.187,0.243,1.776	c0.081,0.482,0.153,0.985,0.564,1.302c0.403,0.311,0.97,0.292,1.453,0.329c0.698,0.055,1.396,0.105,2.094,0.151	c1.355,0.089,2.712,0.162,4.068,0.223c5.389,0.239,10.785,0.272,16.179,0.279c2.719,0.004,5.438,0.001,8.157,0.015	c1.359,0.007,2.718,0.019,4.077,0.037c1.214,0.016,2.432,0.028,3.634-0.171c1.974-0.327,4.044-1.41,4.743-3.406	C47.849,39.207,46.987,37.291,45.141,36.505z"/><path fill="#231f20" d="M42.212,41.211c-3.594-2.132-7.434-3.843-11.419-5.097c1.192-0.391,2.423-0.648,3.676-0.735	c0.269-0.019,0.5-0.216,0.5-0.5c0-0.256-0.229-0.519-0.5-0.5c-1.372,0.095-2.724,0.366-4.027,0.801	c-2.155-4.62-4.581-9.108-7.271-13.439c-0.339-0.546-1.204-0.044-0.863,0.505c2.695,4.338,5.124,8.833,7.282,13.461	c-0.004,0.015-0.013,0.028-0.016,0.043c-0.837-0.242-1.677-0.471-2.525-0.671c-5.274-1.249-10.862-1.82-16.268-1.274	c-2.994,0.303-5.931,1.022-8.615,2.409c-0.572,0.296-0.067,1.159,0.505,0.863c4.733-2.447,10.273-2.69,15.49-2.341	c5.263,0.353,10.468,1.51,15.396,3.389c2.826,1.077,5.55,2.406,8.15,3.948C42.262,42.403,42.766,41.539,42.212,41.211z"/><path fill="#fff" d="M13,14.327c-0.928,2.041-1.857,4.083-2.785,6.124c-0.172,0.377-0.265,0.741-0.151,1.156 c0.096,0.348,0.365,0.725,0.689,0.896c0.658,0.348,1.705,0.224,2.052-0.538c0.928-2.041,1.857-4.083,2.785-6.124 c0.172-0.377,0.265-0.741,0.151-1.156c-0.096-0.348-0.365-0.725-0.689-0.896C14.394,13.441,13.347,13.564,13,14.327L13,14.327z"/><path fill="#ff9600" d="M39.078,9.536c-0.079-0.489-0.26-0.926-0.425-1.3s-0.401-0.861-0.771-1.305	c-0.575-0.69-1.391-1.213-2.49-1.597c-0.112-0.04-0.227-0.077-0.342-0.112l-0.205-0.075c-1.478-0.437-3.198,0.127-4.382,1.431	c-1.02,1.124-1.522,2.644-1.344,4.073c0.01,0.073,0.025,0.147,0.047,0.221c0.091,0.465,0.293,0.888,0.472,1.263	c0.237,0.496,0.555,0.933,0.944,1.298c0.11,0.104,0.229,0.2,0.351,0.292c0.304,0.271,0.636,0.499,0.915,0.633	c0.37,0.232,0.825,0.407,1.353,0.519c0.378,0.079,0.755,0.119,1.121,0.119c0.685,0,1.333-0.138,1.893-0.406	c1.049-0.505,1.759-1.392,2.089-1.875c0.595-0.873,0.886-1.903,0.819-2.901L39.078,9.536z M36.651,11.587	c-0.363,0.533-0.852,0.981-1.304,1.199c-0.456,0.221-1.089,0.269-1.734,0.133c-0.295-0.062-0.531-0.148-0.786-0.303	c-0.209-0.104-0.405-0.24-0.582-0.402l-0.082-0.067c-0.073-0.054-0.146-0.11-0.212-0.174c-0.208-0.194-0.379-0.43-0.524-0.734	c-0.124-0.261-0.266-0.557-0.302-0.774l-0.028-0.129c-0.084-0.835,0.23-1.732,0.848-2.413c0.53-0.582,1.415-1.067,2.24-0.881	l0.196,0.07c0.119,0.033,0.235,0.07,0.351,0.111c0.75,0.262,1.278,0.586,1.615,0.989c0.165,0.198,0.307,0.446,0.476,0.831	c0.128,0.289,0.255,0.594,0.289,0.863l0.021,0.131C37.146,10.563,36.977,11.11,36.651,11.587z"/><path fill="#ff9600" d="M25.053,13.305c0.232-0.038,0.464-0.073,0.696-0.104c-0.089,0.012-0.177,0.024-0.266,0.036 c0.427-0.057,0.855-0.102,1.284-0.136c0.269-0.021,0.511-0.097,0.707-0.293c0.173-0.173,0.304-0.458,0.293-0.707 c-0.012-0.259-0.097-0.527-0.293-0.707c-0.187-0.171-0.445-0.314-0.707-0.293c-0.752,0.059-1.501,0.154-2.246,0.276 c-0.232,0.038-0.484,0.265-0.598,0.46c-0.125,0.214-0.179,0.53-0.101,0.771c0.078,0.242,0.228,0.475,0.46,0.598 c0.08,0.034,0.159,0.067,0.239,0.101C24.699,13.353,24.876,13.353,25.053,13.305L25.053,13.305z"/><path fill="#ff9600" d="M28.198,3.316c0.693,0.632,1.458,1.195,2.276,1.655c0.229,0.129,0.516,0.171,0.771,0.101 c0.232-0.064,0.483-0.243,0.598-0.46c0.123-0.232,0.184-0.513,0.101-0.771c-0.08-0.246-0.229-0.468-0.46-0.598 c-0.475-0.267-0.93-0.568-1.363-0.901c0.067,0.052,0.135,0.104,0.202,0.156c-0.245-0.19-0.482-0.389-0.711-0.598 c-0.195-0.178-0.438-0.293-0.707-0.293c-0.245,0-0.538,0.109-0.707,0.293c-0.175,0.191-0.305,0.441-0.293,0.707 C27.917,2.866,28.001,3.136,28.198,3.316L28.198,3.316z"/><path fill="#ff9600" d="M40.6,6.924c0.18-0.083,0.361-0.163,0.543-0.24c-0.08,0.034-0.159,0.067-0.239,0.101 c0.763-0.321,1.546-0.591,2.344-0.81c0.504-0.138,0.865-0.717,0.698-1.23c-0.167-0.516-0.689-0.846-1.23-0.698 c-1.073,0.293-2.115,0.686-3.126,1.15c-0.215,0.099-0.399,0.379-0.46,0.598c-0.066,0.239-0.036,0.558,0.101,0.771 c0.138,0.214,0.343,0.401,0.598,0.46C40.106,7.088,40.343,7.042,40.6,6.924L40.6,6.924z"/><path fill="#ff9600" d="M39.546,14.911c0.446,0.215,0.891,0.43,1.337,0.645c0.115,0.073,0.239,0.113,0.372,0.119 c0.133,0.03,0.266,0.024,0.399-0.018c0.13-0.031,0.243-0.091,0.34-0.179c0.109-0.071,0.195-0.164,0.258-0.281 c0.123-0.232,0.184-0.513,0.101-0.771c-0.077-0.237-0.227-0.486-0.46-0.598c-0.446-0.215-0.891-0.43-1.337-0.645 c-0.115-0.073-0.239-0.113-0.372-0.119c-0.133-0.03-0.266-0.024-0.399,0.018c-0.13,0.031-0.243,0.091-0.34,0.179 c-0.109,0.071-0.195,0.164-0.258,0.281c-0.123,0.232-0.184,0.513-0.101,0.771C39.163,14.55,39.313,14.799,39.546,14.911 L39.546,14.911z"/><path fill="#ff9600" d="M31.711,16.474c-0.091,0.471-0.183,0.942-0.274,1.413c-0.042,0.133-0.048,0.266-0.018,0.399 c0.006,0.133,0.046,0.257,0.119,0.372c0.063,0.117,0.149,0.21,0.258,0.281c0.097,0.088,0.21,0.148,0.34,0.179 c0.256,0.058,0.543,0.046,0.771-0.101c0.209-0.135,0.41-0.344,0.46-0.598c0.091-0.471,0.183-0.942,0.274-1.413 c0.042-0.133,0.048-0.266,0.018-0.399c-0.006-0.133-0.046-0.257-0.119-0.372c-0.063-0.117-0.149-0.21-0.258-0.281 c-0.097-0.088-0.21-0.148-0.34-0.179c-0.256-0.058-0.543-0.046-0.771,0.101C31.962,16.011,31.761,16.22,31.711,16.474 L31.711,16.474z"/><path fill="#df4bb1" d="M25.734,8.198c0.652,0.166,1.312,0.296,1.978,0.389c0.133,0.042,0.266,0.048,0.399,0.018 c0.133-0.006,0.257-0.046,0.372-0.119c0.207-0.121,0.405-0.359,0.46-0.598c0.058-0.256,0.046-0.543-0.101-0.771 c-0.13-0.202-0.347-0.425-0.598-0.46c-0.666-0.093-1.326-0.223-1.978-0.389c-0.254-0.065-0.542-0.033-0.771,0.101 c-0.207,0.121-0.405,0.359-0.46,0.598c-0.058,0.256-0.046,0.543,0.101,0.771C25.276,7.955,25.478,8.133,25.734,8.198L25.734,8.198 z"/><path fill="#df4bb1" d="M36.762,1.372c-0.312,0.672-0.573,1.366-0.75,2.085c-0.063,0.256-0.034,0.54,0.101,0.771 c0.121,0.207,0.359,0.405,0.598,0.46c0.256,0.058,0.543,0.046,0.771-0.101c0.216-0.139,0.397-0.342,0.46-0.598 c0.126-0.513,0.292-1.014,0.496-1.501c-0.034,0.08-0.067,0.159-0.101,0.239c0.049-0.116,0.1-0.231,0.154-0.346 c0.073-0.115,0.113-0.239,0.119-0.372c0.03-0.133,0.024-0.266-0.018-0.399c-0.064-0.232-0.243-0.483-0.46-0.598 c-0.232-0.123-0.513-0.184-0.771-0.101C37.125,0.988,36.87,1.139,36.762,1.372L36.762,1.372z"/><path fill="#df4bb1" d="M41.51,11.236c0.511,0.058,1.023,0.116,1.534,0.174c0.138,0.005,0.266-0.024,0.385-0.086 c0.124-0.04,0.231-0.109,0.322-0.207c0.173-0.173,0.304-0.458,0.293-0.707c-0.012-0.259-0.097-0.527-0.293-0.707 c-0.067-0.052-0.135-0.104-0.202-0.156c-0.156-0.09-0.324-0.136-0.505-0.137c-0.511-0.058-1.023-0.116-1.534-0.174 c-0.138-0.005-0.266,0.024-0.385,0.086c-0.124,0.04-0.231,0.109-0.322,0.207c-0.173,0.173-0.304,0.458-0.293,0.707 c0.012,0.259,0.097,0.527,0.293,0.707c0.067,0.052,0.135,0.104,0.202,0.156C41.162,11.19,41.33,11.235,41.51,11.236L41.51,11.236z"/><path fill="#df4bb1" d="M28.249,15.082c-0.185,0.302-0.371,0.603-0.556,0.905c-0.073,0.115-0.113,0.239-0.119,0.372 c-0.03,0.133-0.024,0.266,0.018,0.399c0.031,0.13,0.091,0.243,0.179,0.34c0.071,0.109,0.164,0.195,0.281,0.258 c0.08,0.034,0.159,0.067,0.239,0.101c0.177,0.048,0.354,0.048,0.532,0c0.08-0.034,0.159-0.067,0.239-0.101 c0.15-0.089,0.27-0.208,0.359-0.359c0.185-0.302,0.371-0.603,0.556-0.905c0.073-0.115,0.113-0.239,0.119-0.372 c0.03-0.133,0.024-0.266-0.018-0.399c-0.031-0.13-0.091-0.243-0.179-0.34c-0.071-0.109-0.164-0.195-0.281-0.258 c-0.08-0.034-0.159-0.067-0.239-0.101c-0.177-0.048-0.354-0.048-0.532,0c-0.08,0.034-0.159,0.067-0.239,0.101 C28.458,14.812,28.338,14.932,28.249,15.082L28.249,15.082z"/><path fill="#df4bb1" d="M35.769,17.07c0.101,0.234,0.238,0.438,0.393,0.638c0.155,0.201,0.316,0.386,0.516,0.544 c0.091,0.098,0.198,0.166,0.322,0.207c0.119,0.063,0.248,0.091,0.385,0.086c0.138,0.005,0.266-0.024,0.385-0.086 c0.124-0.04,0.231-0.109,0.322-0.207c0.052-0.067,0.104-0.135,0.156-0.202c0.09-0.156,0.136-0.324,0.137-0.505 c-0.012-0.089-0.024-0.177-0.036-0.266c-0.048-0.169-0.133-0.316-0.257-0.441c-0.164-0.129-0.31-0.278-0.438-0.442 c0.052,0.067,0.104,0.135,0.156,0.202c-0.127-0.166-0.232-0.346-0.315-0.537c-0.063-0.117-0.149-0.21-0.258-0.281 c-0.097-0.088-0.21-0.148-0.34-0.179c-0.133-0.042-0.266-0.048-0.399-0.018c-0.133,0.006-0.257,0.046-0.372,0.119 c-0.067,0.052-0.135,0.104-0.202,0.156c-0.124,0.125-0.21,0.272-0.257,0.441c-0.012,0.089-0.024,0.177-0.036,0.266 C35.633,16.745,35.678,16.914,35.769,17.07L35.769,17.07z"/><path fill="#429ad4" d="M39.298,35.191c0,0.032,0,0.064,0,0.096c-0.005,0.138,0.024,0.266,0.086,0.385 c0.04,0.124,0.109,0.231,0.207,0.322c0.091,0.098,0.198,0.166,0.322,0.207c0.119,0.063,0.248,0.091,0.385,0.086 c0.089-0.012,0.177-0.024,0.266-0.036c0.169-0.048,0.316-0.133,0.441-0.257c0.052-0.067,0.104-0.135,0.156-0.202 c0.09-0.156,0.136-0.324,0.137-0.505c0-0.032,0-0.064,0-0.096c0.005-0.138-0.024-0.266-0.086-0.385 c-0.04-0.124-0.109-0.231-0.207-0.322c-0.091-0.098-0.198-0.166-0.322-0.207c-0.119-0.063-0.248-0.091-0.385-0.086 c-0.089,0.012-0.177,0.024-0.266,0.036c-0.169,0.048-0.316,0.133-0.441,0.257c-0.052,0.067-0.104,0.135-0.156,0.202 C39.344,34.843,39.298,35.011,39.298,35.191L39.298,35.191z"/><path fill="#99c93c" d="M41.203,20.838c1.83,0.079,2.694,2.497,1.155,3.621c-0.402,0.294-0.623,0.762-0.409,1.249 c0.188,0.427,0.702,0.748,1.18,0.579c0.778-0.275,1.945,0.286,2.612,0.672c0.869,0.503,1.265,1.07,1.459,2.054 c0.17,0.86,0.093,1.719-0.464,2.427c-0.421,0.535-1.365,1.24-2.086,1.158c0.168,0.046,0.336,0.091,0.505,0.137 c-0.035-0.024-0.071-0.049-0.106-0.073c-1.063-0.731-2.065,1.002-1.009,1.727c1.128,0.775,3.112-0.501,3.901-1.304 c1.077-1.096,1.487-2.554,1.277-4.058c-0.218-1.563-0.839-2.752-2.186-3.623c-1.156-0.748-3.05-1.535-4.434-1.046 c0.257,0.609,0.514,1.219,0.771,1.828c1.383-1.011,2.16-2.784,1.641-4.48c-0.514-1.679-2.076-2.793-3.805-2.868 C39.916,18.782,39.919,20.782,41.203,20.838L41.203,20.838z"/></svg>