<svg xmlns="http://www.w3.org/2000/svg"  viewBox="0 0 50 50" width="500px" height="500px"><path fill="#ff9600" d="M37.078,9.536c-0.079-0.489-0.26-0.926-0.425-1.3s-0.401-0.861-0.771-1.305	c-0.575-0.69-1.391-1.213-2.49-1.597c-0.112-0.04-0.227-0.077-0.342-0.112l-0.205-0.075c-1.479-0.434-3.198,0.126-4.382,1.431	c-1.02,1.124-1.522,2.644-1.344,4.073c0.01,0.073,0.025,0.147,0.047,0.221c0.091,0.465,0.293,0.888,0.472,1.263	c0.237,0.496,0.555,0.933,0.944,1.298c0.11,0.104,0.229,0.2,0.351,0.292c0.304,0.271,0.636,0.499,0.915,0.633	c0.37,0.232,0.825,0.407,1.353,0.519c0.378,0.079,0.755,0.119,1.121,0.119c0.685,0,1.333-0.138,1.893-0.406	c1.049-0.505,1.759-1.392,2.089-1.875c0.595-0.873,0.886-1.903,0.819-2.901L37.078,9.536z M34.651,11.587	c-0.363,0.533-0.852,0.981-1.304,1.199c-0.456,0.22-1.09,0.269-1.734,0.133c-0.295-0.062-0.531-0.148-0.786-0.303	c-0.209-0.104-0.405-0.24-0.582-0.402l-0.082-0.067c-0.073-0.054-0.146-0.11-0.212-0.174c-0.208-0.194-0.379-0.43-0.524-0.734	c-0.124-0.261-0.266-0.557-0.302-0.774l-0.028-0.129c-0.084-0.835,0.23-1.732,0.848-2.413c0.53-0.583,1.421-1.062,2.24-0.881	l0.196,0.07c0.119,0.033,0.235,0.07,0.351,0.111c0.75,0.262,1.278,0.586,1.615,0.989c0.165,0.198,0.307,0.446,0.476,0.831	c0.128,0.289,0.255,0.594,0.289,0.863l0.021,0.131C35.146,10.563,34.977,11.11,34.651,11.587z"/><path fill="#99c93c" d="M45.141,36.505c-1.208-0.514-2.544-0.796-3.828-1.05c-0.131-0.026-0.265-0.041-0.397-0.065 c-0.071-0.661-0.146-1.322-0.233-1.982c0.625-0.301,1.128-0.823,1.398-1.484c1.086-0.02,2.297-0.303,2.856-1.314 c0.344-0.622,0.357-1.405,0.021-2c0.961-0.454,1.728-1.296,1.663-2.443c-0.046-0.818-0.622-1.508-1.354-1.73 c0.512-0.99,0.592-2.211-0.146-3.125c-0.627-0.777-1.683-1.088-2.594-0.814c-0.035-0.429-0.135-0.848-0.403-1.199 c-0.423-0.553-1.108-0.732-1.778-0.662c-0.985,0.104-2.067,0.642-2.573,1.508c-1.305-0.202-2.65,0.337-3.335,1.579 c-0.373,0.677-0.558,1.586-0.13,2.284c0.043,0.071,0.106,0.115,0.158,0.174c-0.886,0.491-1.63,1.203-1.201,2.262 c0.279,0.69,0.877,1.116,1.547,1.257c-0.515,0.833-0.659,1.853-0.076,2.759c0.352,0.547,0.922,0.956,1.568,1.058 c0.527,0.083,1.016-0.066,1.476-0.291c0.009,0.971,0.279,1.934,1.097,2.367c0.029,0.187,0.065,0.374,0.09,0.552 c0.044,0.316,0.088,0.632,0.129,0.948c0,0.001,0,0.003,0,0.004c-0.694-0.089-1.39-0.159-2.087-0.204 c-0.763-0.05-1.526-0.067-2.289-0.061c-0.979-2.125-1.986-4.238-3.026-6.334c-1.001-2.018-2.03-4.023-3.086-6.012 c-0.815-1.536-1.595-3.423-3.27-4.199c-0.217-0.101-0.425-0.079-0.606,0.078c-1.063,0.923-1.851,2.059-2.516,3.273 c-0.685-1.345-1.371-2.69-2.073-4.027c-0.852-1.621-1.635-3.361-2.873-4.733c-0.493-0.546-1.054-1.023-1.64-1.466 c-0.646-0.488-1.221-1.08-2.066-0.79c-1.395,0.479-2.037,2.244-2.654,3.437C9.17,17.42,7.577,20.859,6.127,24.358 c-1.642,3.964-3.087,8.008-4.34,12.112c-0.042,0.138-0.021,0.256,0.031,0.353c-0.029,1.256,0.013,2.512,0.148,3.762 c0.064,0.594,0.145,1.187,0.243,1.776c0.081,0.482,0.153,0.985,0.564,1.302c0.403,0.311,0.97,0.292,1.453,0.329 c0.698,0.055,1.396,0.105,2.094,0.151c1.355,0.089,2.712,0.162,4.068,0.223c5.389,0.239,10.785,0.272,16.179,0.279 c2.719,0.004,5.438,0.001,8.157,0.015c1.359,0.007,2.718,0.019,4.077,0.037c1.214,0.016,2.432,0.028,3.634-0.171 c1.974-0.327,4.044-1.41,4.743-3.406C47.849,39.207,46.987,37.291,45.141,36.505z"/><path fill="#231f20" d="M42.212,41.211c-3.594-2.132-7.434-3.843-11.419-5.097c1.192-0.391,2.423-0.648,3.676-0.735	c0.269-0.019,0.5-0.216,0.5-0.5c0-0.256-0.229-0.519-0.5-0.5c-1.372,0.095-2.724,0.366-4.027,0.801	c-2.155-4.62-4.581-9.108-7.271-13.439c-0.339-0.546-1.204-0.044-0.863,0.505c2.694,4.338,5.124,8.833,7.282,13.461	c-0.004,0.015-0.013,0.028-0.016,0.043c-0.837-0.242-1.677-0.471-2.525-0.671c-5.274-1.249-10.862-1.82-16.268-1.274	c-2.994,0.303-5.931,1.022-8.615,2.409c-0.572,0.296-0.067,1.159,0.505,0.863c4.733-2.447,10.273-2.69,15.49-2.341	c5.263,0.353,10.468,1.51,15.396,3.389c2.826,1.077,5.55,2.406,8.15,3.948C42.262,42.403,42.766,41.539,42.212,41.211z"/><path fill="#231f20" d="M43.087,28.668c0.356,0.196,0.744,0.343,1.144,0.419c0.134,0.025,0.264,0.02,0.385-0.05 c0.104-0.061,0.203-0.18,0.23-0.299c0.029-0.128,0.023-0.272-0.05-0.385c-0.067-0.104-0.172-0.206-0.299-0.23 c-0.237-0.045-0.468-0.114-0.691-0.207c0.04,0.017,0.08,0.034,0.119,0.05c-0.114-0.048-0.225-0.102-0.333-0.162 c-0.115-0.064-0.257-0.086-0.385-0.05c-0.116,0.032-0.242,0.122-0.299,0.23c-0.061,0.116-0.092,0.257-0.05,0.385 C42.897,28.491,42.972,28.604,43.087,28.668L43.087,28.668z"/><path fill="#231f20" d="M37.697,21.044c0.28,0.448,0.668,0.827,1.127,1.088c0.114,0.065,0.258,0.085,0.385,0.05 c0.116-0.032,0.242-0.122,0.299-0.23c0.061-0.116,0.092-0.257,0.05-0.385c-0.04-0.123-0.115-0.234-0.23-0.299 c-0.112-0.063-0.219-0.135-0.321-0.213c0.034,0.026,0.067,0.052,0.101,0.078c-0.179-0.139-0.339-0.3-0.478-0.48 c0.026,0.034,0.052,0.067,0.078,0.101c-0.053-0.07-0.103-0.141-0.149-0.216c-0.068-0.109-0.174-0.195-0.299-0.23 c-0.12-0.033-0.279-0.018-0.385,0.05c-0.107,0.069-0.201,0.171-0.23,0.299C37.617,20.788,37.625,20.929,37.697,21.044 L37.697,21.044z"/><path fill="#fff" d="M13,14.327c-0.928,2.041-1.857,4.083-2.785,6.124c-0.172,0.377-0.265,0.741-0.151,1.156 c0.096,0.348,0.365,0.725,0.689,0.896c0.658,0.348,1.705,0.224,2.052-0.538c0.928-2.041,1.857-4.083,2.785-6.124 c0.172-0.377,0.265-0.741,0.151-1.156c-0.096-0.348-0.365-0.725-0.689-0.896C14.394,13.441,13.347,13.564,13,14.327L13,14.327z"/><path fill="#ff9600" d="M23.053,13.305c0.232-0.038,0.464-0.073,0.696-0.104c-0.089,0.012-0.177,0.024-0.266,0.036 c0.427-0.057,0.855-0.102,1.284-0.136c0.269-0.021,0.511-0.097,0.707-0.293c0.173-0.173,0.304-0.458,0.293-0.707 c-0.012-0.259-0.097-0.527-0.293-0.707c-0.187-0.171-0.445-0.314-0.707-0.293c-0.752,0.059-1.501,0.154-2.246,0.276 c-0.232,0.038-0.484,0.265-0.598,0.46c-0.125,0.214-0.179,0.53-0.101,0.771c0.078,0.242,0.228,0.475,0.46,0.598 c0.08,0.034,0.159,0.067,0.239,0.101C22.699,13.353,22.876,13.353,23.053,13.305L23.053,13.305z"/><path fill="#ff9600" d="M26.198,3.316c0.693,0.632,1.458,1.195,2.276,1.655c0.229,0.129,0.516,0.171,0.771,0.101 c0.232-0.064,0.483-0.243,0.598-0.46c0.123-0.232,0.184-0.513,0.101-0.771c-0.08-0.246-0.229-0.468-0.46-0.598 c-0.475-0.267-0.93-0.568-1.363-0.901c0.067,0.052,0.135,0.104,0.202,0.156c-0.245-0.19-0.482-0.389-0.711-0.598 c-0.195-0.178-0.438-0.293-0.707-0.293c-0.245,0-0.538,0.109-0.707,0.293c-0.175,0.191-0.305,0.441-0.293,0.707 C25.917,2.866,26.001,3.136,26.198,3.316L26.198,3.316z"/><path fill="#ff9600" d="M38.6,6.924c0.18-0.083,0.361-0.163,0.543-0.24c-0.08,0.034-0.159,0.067-0.239,0.101 c0.763-0.321,1.546-0.591,2.344-0.81c0.504-0.138,0.865-0.717,0.698-1.23c-0.167-0.516-0.689-0.846-1.23-0.698 c-1.073,0.293-2.115,0.686-3.126,1.15c-0.215,0.099-0.399,0.379-0.46,0.598c-0.066,0.239-0.036,0.558,0.101,0.771 c0.138,0.214,0.343,0.401,0.598,0.46C38.106,7.088,38.343,7.042,38.6,6.924L38.6,6.924z"/><path fill="#ff9600" d="M37.546,14.911c0.446,0.215,0.891,0.43,1.337,0.645c0.115,0.073,0.239,0.113,0.372,0.119 c0.133,0.03,0.266,0.024,0.399-0.018c0.13-0.031,0.243-0.091,0.34-0.179c0.109-0.071,0.195-0.164,0.258-0.281 c0.123-0.232,0.184-0.513,0.101-0.771c-0.077-0.237-0.227-0.486-0.46-0.598c-0.446-0.215-0.891-0.43-1.337-0.645 c-0.115-0.073-0.239-0.113-0.372-0.119c-0.133-0.03-0.266-0.024-0.399,0.018c-0.13,0.031-0.243,0.091-0.34,0.179 c-0.109,0.071-0.195,0.164-0.258,0.281c-0.123,0.232-0.184,0.513-0.101,0.771C37.163,14.55,37.313,14.799,37.546,14.911 L37.546,14.911z"/><path fill="#ff9600" d="M29.711,16.474c-0.091,0.471-0.183,0.942-0.274,1.413c-0.042,0.133-0.048,0.266-0.018,0.399 c0.006,0.133,0.046,0.257,0.119,0.372c0.063,0.117,0.149,0.21,0.258,0.281c0.097,0.088,0.21,0.148,0.34,0.179 c0.256,0.058,0.543,0.046,0.771-0.101c0.209-0.135,0.41-0.344,0.46-0.598c0.091-0.471,0.183-0.942,0.274-1.413 c0.042-0.133,0.048-0.266,0.018-0.399c-0.006-0.133-0.046-0.257-0.119-0.372c-0.063-0.117-0.149-0.21-0.258-0.281 c-0.097-0.088-0.21-0.148-0.34-0.179c-0.256-0.058-0.543-0.046-0.771,0.101C29.962,16.011,29.761,16.22,29.711,16.474 L29.711,16.474z"/><path fill="#df4bb1" d="M23.734,8.198c0.652,0.166,1.312,0.296,1.978,0.389c0.133,0.042,0.266,0.048,0.399,0.018 c0.133-0.006,0.257-0.046,0.372-0.119c0.207-0.121,0.405-0.359,0.46-0.598c0.058-0.256,0.046-0.543-0.101-0.771 c-0.13-0.202-0.347-0.425-0.598-0.46c-0.666-0.093-1.326-0.223-1.978-0.389c-0.254-0.065-0.542-0.033-0.771,0.101 c-0.207,0.121-0.405,0.359-0.46,0.598c-0.058,0.256-0.046,0.543,0.101,0.771C23.276,7.955,23.478,8.133,23.734,8.198L23.734,8.198 z"/><path fill="#df4bb1" d="M34.762,1.372c-0.312,0.672-0.573,1.366-0.75,2.085c-0.063,0.256-0.034,0.54,0.101,0.771 c0.121,0.207,0.359,0.405,0.598,0.46c0.256,0.058,0.543,0.046,0.771-0.101c0.216-0.139,0.397-0.342,0.46-0.598 c0.126-0.513,0.292-1.014,0.496-1.501c-0.034,0.08-0.067,0.159-0.101,0.239c0.049-0.116,0.1-0.231,0.154-0.346 c0.073-0.115,0.113-0.239,0.119-0.372c0.03-0.133,0.024-0.266-0.018-0.399c-0.064-0.232-0.243-0.483-0.46-0.598 c-0.232-0.123-0.513-0.184-0.771-0.101C35.125,0.988,34.87,1.139,34.762,1.372L34.762,1.372z"/><path fill="#df4bb1" d="M39.51,11.236c0.511,0.058,1.023,0.116,1.534,0.174c0.138,0.005,0.266-0.024,0.385-0.086 c0.124-0.04,0.231-0.109,0.322-0.207c0.173-0.173,0.304-0.458,0.293-0.707c-0.012-0.259-0.097-0.527-0.293-0.707 c-0.067-0.052-0.135-0.104-0.202-0.156c-0.156-0.09-0.324-0.136-0.505-0.137c-0.511-0.058-1.023-0.116-1.534-0.174 c-0.138-0.005-0.266,0.024-0.385,0.086c-0.124,0.04-0.231,0.109-0.322,0.207c-0.173,0.173-0.304,0.458-0.293,0.707 c0.012,0.259,0.097,0.527,0.293,0.707c0.067,0.052,0.135,0.104,0.202,0.156C39.162,11.19,39.33,11.235,39.51,11.236L39.51,11.236z"/><path fill="#df4bb1" d="M26.249,15.082c-0.185,0.302-0.371,0.603-0.556,0.905c-0.073,0.115-0.113,0.239-0.119,0.372 c-0.03,0.133-0.024,0.266,0.018,0.399c0.031,0.13,0.091,0.243,0.179,0.34c0.071,0.109,0.164,0.195,0.281,0.258 c0.08,0.034,0.159,0.067,0.239,0.101c0.177,0.048,0.354,0.048,0.532,0c0.08-0.034,0.159-0.067,0.239-0.101 c0.15-0.089,0.27-0.208,0.359-0.359c0.185-0.302,0.371-0.603,0.556-0.905c0.073-0.115,0.113-0.239,0.119-0.372 c0.03-0.133,0.024-0.266-0.018-0.399c-0.031-0.13-0.091-0.243-0.179-0.34c-0.071-0.109-0.164-0.195-0.281-0.258 c-0.08-0.034-0.159-0.067-0.239-0.101c-0.177-0.048-0.354-0.048-0.532,0c-0.08,0.034-0.159,0.067-0.239,0.101 C26.458,14.812,26.338,14.932,26.249,15.082L26.249,15.082z"/><path fill="#df4bb1" d="M33.769,17.07c0.101,0.234,0.238,0.438,0.393,0.638c0.155,0.201,0.316,0.386,0.516,0.544 c0.091,0.098,0.198,0.166,0.322,0.207c0.119,0.063,0.248,0.091,0.385,0.086c0.138,0.005,0.266-0.024,0.385-0.086 c0.124-0.04,0.231-0.109,0.322-0.207c0.052-0.067,0.104-0.135,0.156-0.202c0.09-0.156,0.136-0.324,0.137-0.505 c-0.012-0.089-0.024-0.177-0.036-0.266c-0.048-0.169-0.133-0.316-0.257-0.441c-0.164-0.129-0.31-0.278-0.438-0.442 c0.052,0.067,0.104,0.135,0.156,0.202c-0.127-0.166-0.232-0.346-0.315-0.537c-0.063-0.117-0.149-0.21-0.258-0.281 c-0.097-0.088-0.21-0.148-0.34-0.179c-0.133-0.042-0.266-0.048-0.399-0.018c-0.133,0.006-0.257,0.046-0.372,0.119 c-0.067,0.052-0.135,0.104-0.202,0.156c-0.124,0.125-0.21,0.272-0.257,0.441c-0.012,0.089-0.024,0.177-0.036,0.266 C33.633,16.745,33.678,16.914,33.769,17.07L33.769,17.07z"/></svg>